<?xml version="1.0" encoding="UTF-8" standalone="no"?>
<svg width="24px" height="24px" viewBox="0 0 24 24" version="1.1" xmlns="http://www.w3.org/2000/svg" xmlns:xlink="http://www.w3.org/1999/xlink" xmlns:sketch="http://www.bohemiancoding.com/sketch/ns">
    <!-- Generator: Sketch 3.3.2 (12043) - http://www.bohemiancoding.com/sketch -->
    <title>dribbble</title>
    <desc>Created with Sketch.</desc>
    <defs></defs>
    <g id="Page-1" stroke="none" stroke-width="1" fill="none" fill-rule="evenodd" sketch:type="MSPage">
        <g id="Artboard-Copy-2" sketch:type="MSArtboardGroup" transform="translate(-608.000000, -598.000000)" fill="#EFE3BB">
            <g id="Group" sketch:type="MSLayerGroup" transform="translate(345.000000, 320.000000)">
                <g id="Oval-1-+-Oval-1-Copy-+-dribbble-+-Oval-1-Copy-2-+-Oval-1-Copy-3-+-twitter-+-Oval-1-Copy-4-+-Oval-1-Copy-5-+-email" transform="translate(249.000000, 264.000000)" sketch:type="MSShapeGroup">
                    <g id="Oval-1-+-Oval-1-Copy-+-dribbble">
                        <path d="M25.6953125,22.109375 C24.4414062,19.8007812 22.8945312,17.4453125 20.9726562,15.1132812 C17.5507812,16.6953125 14.9960938,19.8359375 14.2460938,23.609375 C18.8046875,23.5273438 22.578125,23.0234375 25.6953125,22.109375 L25.6953125,22.109375 Z M17.1640625,34.1445312 C19.6953125,30.2773437 22.8945312,27.6640625 26.6679688,26.328125 C26.9726562,26.2226562 27.2773438,26.140625 27.5820312,26.0585937 C27.2539062,25.2734375 26.9140625,24.5234375 26.5273438,23.75 C23.140625,24.8046875 19.0273438,25.3554687 14,25.4492187 L14,26 C14,29.140625 15.1953125,32 17.1640625,34.1445312 L17.1640625,34.1445312 Z M30.7226562,37.0273438 C30.2539062,34.3085938 29.5273438,31.1445312 28.25,27.7460938 C24.78125,28.71875 21.359375,31.0039062 18.5585938,35.421875 C20.5859375,37.0273438 23.1992188,38 26,38 C27.6640625,38 29.2460938,37.671875 30.7226562,37.0273438 L30.7226562,37.0273438 Z M37.859375,27.8046875 C35.5273438,27.21875 32.9140625,26.9492188 30.2773437,27.3359375 C31.4492187,30.4765625 32.140625,33.4179688 32.609375,35.9960938 C35.3867188,34.1679688 37.3554688,31.2265625 37.859375,27.8046875 L37.859375,27.8046875 Z M27.6640625,21.4414062 C30.3007812,20.3867188 32.3867188,18.9453125 34.0039062,17.0820312 C31.8945312,15.171875 29.0820312,14 26,14 C24.96875,14 23.9726562,14.140625 23,14.3867188 C24.8867188,16.71875 26.421875,19.109375 27.6640625,21.4414062 L27.6640625,21.4414062 Z M38,25.9414062 C37.9765625,23.0820312 36.96875,20.4453125 35.28125,18.3945312 C33.5234375,20.3867188 31.2734375,21.9453125 28.4960938,23.0585938 C28.8945312,23.9140625 29.28125,24.7460938 29.609375,25.578125 C32.2226562,25.1445312 35.0234375,25.2734375 38,25.9414062 L38,25.9414062 Z" id="dribbble"></path>
                    </g>
                </g>
            </g>
        </g>
    </g>
</svg>