<?xml version="1.0" encoding="UTF-8" standalone="no"?>
<svg width="27px" height="27px" viewBox="0 0 27 27" version="1.1" xmlns="http://www.w3.org/2000/svg" xmlns:xlink="http://www.w3.org/1999/xlink" xmlns:sketch="http://www.bohemiancoding.com/sketch/ns">
    <!-- Generator: Sketch 3.3.3 (12072) - http://www.bohemiancoding.com/sketch -->
    <title>dribbble</title>
    <desc>Created with Sketch.</desc>
    <defs></defs>
    <g id="Page-1" stroke="none" stroke-width="1" fill="none" fill-rule="evenodd" sketch:type="MSPage">
        <g id="Artboard-Copy" sketch:type="MSArtboardGroup" transform="translate(-431.000000, -469.000000)" fill="#D9AA85">
            <g id="dribbble-+-twitter-+-paperairplane" sketch:type="MSLayerGroup" transform="translate(420.000000, 458.000000)">
                <g id="Oval-7-+-dribbble" sketch:type="MSShapeGroup">
                    <path d="M24.1572266,20.1230469 C22.746582,17.5258789 21.0063477,14.8759766 18.8442383,12.2524414 C14.9946289,14.0322266 12.1206055,17.5654297 11.2768555,21.8105469 C16.4052734,21.7182617 20.6503906,21.1513672 24.1572266,20.1230469 L24.1572266,20.1230469 Z M14.5595703,33.6625977 C17.4072266,29.3120117 21.0063477,26.3720703 25.2514648,24.8691406 C25.5942383,24.7504883 25.9370117,24.6582031 26.2797852,24.565918 C25.9106445,23.6826172 25.5283203,22.8388672 25.0932617,21.96875 C21.2832031,23.1552734 16.6557617,23.7749023 11,23.8803711 L11,24.5 C11,28.0332031 12.3447266,31.25 14.5595703,33.6625977 L14.5595703,33.6625977 Z M29.8129883,36.9057617 C29.2856445,33.847168 28.4682617,30.2875977 27.03125,26.4643555 C23.1289062,27.5585938 19.2792969,30.1293945 16.128418,35.0996094 C18.4091797,36.9057617 21.3491211,38 24.5,38 C26.3720703,38 28.1518555,37.6308594 29.8129883,36.9057617 L29.8129883,36.9057617 Z M37.8417969,26.5302734 C35.2182617,25.8710938 32.2783203,25.5678711 29.3120117,26.0029297 C30.6303711,29.5361328 31.4082031,32.8452148 31.9355469,35.7456055 C35.0600586,33.6889648 37.2749023,30.3798828 37.8417969,26.5302734 L37.8417969,26.5302734 Z M26.3720703,19.371582 C29.3383789,18.1850586 31.6850586,16.5634766 33.5043945,14.4672852 C31.1313477,12.3183594 27.9672852,11 24.5,11 C23.3398438,11 22.2192383,11.1582031 21.125,11.4350586 C23.2475586,14.0585938 24.9746094,16.7480469 26.3720703,19.371582 L26.3720703,19.371582 Z M38,24.434082 C37.9736328,21.2172852 36.8398438,18.2509766 34.9414062,15.9438477 C32.9638672,18.1850586 30.4326172,19.9384766 27.3081055,21.190918 C27.7563477,22.1533203 28.1914062,23.0893555 28.5605469,24.0253906 C31.5004883,23.5375977 34.6513672,23.6826172 38,24.434082 L38,24.434082 Z" id="dribbble"></path>
                </g>
            </g>
        </g>
    </g>
</svg>