<?xml version="1.0" encoding="UTF-8" standalone="no"?>
<svg width="29px" height="24px" viewBox="0 0 29 24" version="1.1" xmlns="http://www.w3.org/2000/svg" xmlns:xlink="http://www.w3.org/1999/xlink" xmlns:sketch="http://www.bohemiancoding.com/sketch/ns">
    <!-- Generator: Sketch 3.3.3 (12072) - http://www.bohemiancoding.com/sketch -->
    <title>twitter</title>
    <desc>Created with Sketch.</desc>
    <defs></defs>
    <g id="Page-1" stroke="none" stroke-width="1" fill="none" fill-rule="evenodd" sketch:type="MSPage">
        <g id="Artboard-Copy" sketch:type="MSArtboardGroup" transform="translate(-514.000000, -471.000000)" fill="#D9AA85">
            <g id="dribbble-+-twitter-+-paperairplane" sketch:type="MSLayerGroup" transform="translate(420.000000, 458.000000)">
                <g id="Oval-7-Copy-+-twitter" transform="translate(84.000000, 0.000000)" sketch:type="MSShapeGroup">
                    <path d="M35.5732422,16.6430474 C36.8193359,15.9227491 37.7539062,14.7730421 38.1928711,13.4155567 C37.0600586,14.0804475 35.7714844,14.5652637 34.4404297,14.8284497 C33.3217773,13.7202983 31.7783203,13 30.0649414,13 C26.7797852,13 24.1318359,15.5903037 24.1318359,18.8039425 C24.1318359,19.2610549 24.1601562,19.7320192 24.2592773,20.1475759 C19.331543,19.88439 14.9702148,17.6957912 12.0107422,14.1774108 C11.5151367,15.036228 11.2036133,15.9227491 11.2036133,17.0031966 C11.2036133,18.9978689 12.2514648,20.770911 13.8657227,21.8236548 C12.8886719,21.795951 11.9824219,21.5327651 11.175293,21.1033564 L11.175293,21.1726159 C11.175293,23.9984017 13.2285156,26.3532232 15.9472656,26.8795951 C15.4375,27.018114 14.8994141,27.0873735 14.3613281,27.0873735 C13.9931641,27.0873735 13.625,27.0458178 13.2568359,26.9765583 C13.9931641,29.2759723 16.2163086,30.9936068 18.793457,31.0213106 C16.7827148,32.6004262 14.1914062,33.777837 11.4160156,33.777837 C10.9345703,33.777837 10.4672852,33.7501332 10,33.6808737 C12.6196289,35.3292488 15.7773438,36.0495471 19.1333008,36.0495471 C30.0649414,36.0495471 36.0405273,27.1843367 36.0405273,19.496537 L36.0405273,18.734683 C37.1875,17.9174214 38.1928711,16.9062334 39,15.7149707 C37.9238281,16.185935 36.7910156,16.5045285 35.5732422,16.6430474 Z" id="twitter"></path>
                </g>
            </g>
        </g>
    </g>
</svg>