<?xml version="1.0" encoding="UTF-8" standalone="no"?>
<svg width="25px" height="21px" viewBox="0 0 25 21" version="1.1" xmlns="http://www.w3.org/2000/svg" xmlns:xlink="http://www.w3.org/1999/xlink" xmlns:sketch="http://www.bohemiancoding.com/sketch/ns">
    <!-- Generator: Sketch 3.3.2 (12043) - http://www.bohemiancoding.com/sketch -->
    <title>twitter</title>
    <desc>Created with Sketch.</desc>
    <defs></defs>
    <g id="Page-1" stroke="none" stroke-width="1" fill="none" fill-rule="evenodd" sketch:type="MSPage">
        <g id="Artboard-Copy-2" sketch:type="MSArtboardGroup" transform="translate(-708.000000, -600.000000)" fill="#EFE3BB">
            <g id="Group" sketch:type="MSLayerGroup" transform="translate(345.000000, 320.000000)">
                <g id="Oval-1-+-Oval-1-Copy-+-dribbble-+-Oval-1-Copy-2-+-Oval-1-Copy-3-+-twitter-+-Oval-1-Copy-4-+-Oval-1-Copy-5-+-email" transform="translate(249.000000, 264.000000)" sketch:type="MSShapeGroup">
                    <g id="Oval-1-Copy-2-+-Oval-1-Copy-3-+-twitter" transform="translate(101.000000, 0.000000)">
                        <path d="M38,18.4017048 C37.0722656,18.8183271 36.0957031,19.1001598 35.0458984,19.2226958 C36.1201172,18.5855088 36.9257812,17.5684603 37.3041992,16.3676079 C36.3276367,16.9557805 35.2167969,17.3846564 34.0693359,17.6174747 C33.1049805,16.637187 31.7744141,16 30.2973633,16 C27.465332,16 25.1826172,18.2914225 25.1826172,21.1342568 C25.1826172,21.5386255 25.2070312,21.9552477 25.2924805,22.3228556 C21.0444336,22.0900373 17.284668,20.1539691 14.7333984,17.0415557 C14.3061523,17.8012786 14.0375977,18.5855088 14.0375977,19.5412893 C14.0375977,21.3058071 14.940918,22.8742674 16.3325195,23.8055408 C15.4902344,23.7810336 14.7089844,23.5482152 14.0131836,23.1683538 L14.0131836,23.2296217 C14.0131836,25.7293554 15.7832031,27.8124667 18.1269531,28.2781034 C17.6875,28.4006393 17.2236328,28.4619073 16.7597656,28.4619073 C16.4423828,28.4619073 16.125,28.4251465 15.8076172,28.3638785 C16.4423828,30.3979755 18.3588867,31.9174214 20.5805664,31.9419286 C18.847168,33.3388386 16.6132812,34.3803942 14.2207031,34.3803942 C13.8056641,34.3803942 13.402832,34.3558871 13,34.2946191 C15.2583008,35.752797 17.9804688,36.389984 20.8735352,36.389984 C30.2973633,36.389984 35.4487305,28.5476825 35.4487305,21.7469366 L35.4487305,21.0729888 C36.4375,20.3500266 37.3041992,19.4555141 38,18.4017048 L38,18.4017048 Z" id="twitter"></path>
                    </g>
                </g>
            </g>
        </g>
    </g>
</svg>