<svg width="27" height="27" viewBox="0 0 27 27" xmlns="http://www.w3.org/2000/svg"><title>dribbble</title><path d="M13.157 9.123c-1.41-2.597-3.15-5.247-5.313-7.87C3.994 3.032 1.12 6.564.277 10.81c5.128-.092 9.373-.66 12.88-1.687zM3.56 22.663c2.847-4.35 6.446-7.29 10.69-8.794.344-.12.687-.212 1.03-.304-.37-.883-.752-1.727-1.187-2.597-3.81 1.185-8.437 1.805-14.093 1.91v.62c0 3.533 1.345 6.75 3.56 9.163zm15.253 3.243c-.527-3.06-1.345-6.618-2.782-10.442C12.13 16.56 8.28 19.13 5.13 24.1c2.28 1.806 5.22 2.9 8.372 2.9 1.872 0 3.652-.37 5.313-1.094zm8.03-10.376c-2.625-.66-5.565-.962-8.53-.527 1.317 3.533 2.095 6.842 2.623 9.743 3.124-2.057 5.34-5.366 5.906-9.216zm-11.47-7.158c2.965-1.187 5.312-2.81 7.13-4.905C20.132 1.317 16.968 0 13.5 0c-1.16 0-2.28.158-3.375.435 2.123 2.624 3.85 5.313 5.247 7.937zM27 13.434c-.026-3.217-1.16-6.183-3.06-8.49-1.976 2.24-4.507 3.994-7.632 5.247.448.963.883 1.9 1.253 2.835 2.94-.487 6.09-.342 9.44.41z" fill="#D9AA85" fill-rule="evenodd"/></svg>