<svg width="24" height="24" viewBox="0 0 24 24" xmlns="http://www.w3.org/2000/svg"><title>dribbble</title><path d="M11.695 8.11c-1.254-2.31-2.8-4.665-4.722-6.997C3.55 2.695.996 5.836.246 9.61c4.56-.083 8.332-.587 11.45-1.5zm-8.53 12.035c2.53-3.868 5.73-6.48 9.503-7.817.305-.105.61-.187.914-.27-.328-.785-.668-1.535-1.055-2.308-3.386 1.055-7.5 1.605-12.527 1.7V12c0 3.14 1.195 6 3.164 8.145zm13.558 2.882c-.47-2.718-1.196-5.882-2.473-9.28-3.47.972-6.89 3.257-9.69 7.675C6.585 23.027 9.2 24 12 24c1.664 0 3.246-.328 4.723-.973zm7.136-9.222c-2.333-.586-4.946-.856-7.583-.47 1.172 3.142 1.864 6.083 2.332 8.66 2.777-1.827 4.745-4.768 5.25-8.19zM13.663 7.44c2.637-1.053 4.723-2.495 6.34-4.358C17.894 1.172 15.082 0 12 0c-1.03 0-2.027.14-3 .387 1.887 2.332 3.422 4.722 4.664 7.054zM24 11.94c-.023-2.858-1.03-5.495-2.72-7.545-1.757 1.992-4.007 3.55-6.784 4.664.4.854.785 1.686 1.113 2.518 2.613-.433 5.413-.305 8.39.363z" fill="#EFE3BB" fill-rule="evenodd"/></svg>