<svg width="29" height="24" viewBox="0 0 29 24" xmlns="http://www.w3.org/2000/svg"><title>twitter</title><path d="M25.573 3.643c1.246-.72 2.18-1.87 2.62-3.227-1.133.664-2.422 1.15-3.753 1.412C23.322.72 21.778 0 20.065 0c-3.285 0-5.933 2.59-5.933 5.804 0 .457.028.928.127 1.344-4.928-.264-9.29-2.452-12.25-5.97-.495.858-.806 1.745-.806 2.825 0 1.995 1.047 3.768 2.662 4.82-.977-.027-1.884-.29-2.69-.72v.07c0 2.825 2.053 5.18 4.77 5.707-.508.138-1.047.207-1.585.207-.367 0-.735-.04-1.103-.11.736 2.3 2.96 4.017 5.536 4.044-2.01 1.58-4.602 2.758-7.377 2.758-.48 0-.95-.028-1.416-.097 2.62 1.65 5.777 2.37 9.133 2.37 10.932 0 16.908-8.866 16.908-16.553v-.762c1.148-.818 2.153-1.83 2.96-3.02-1.076.47-2.21.79-3.427.928z" fill="#D9AA85" fill-rule="evenodd"/></svg>