<svg width="25" height="21" viewBox="0 0 25 21" xmlns="http://www.w3.org/2000/svg"><title>twitter</title><path d="M25 2.402c-.928.416-1.904.698-2.954.82 1.074-.636 1.88-1.654 2.258-2.854-.976.588-2.087 1.017-3.235 1.25C20.104.637 18.773 0 17.296 0c-2.832 0-5.114 2.29-5.114 5.134 0 .405.024.82.11 1.19-4.25-.234-8.008-2.17-10.56-5.282-.427.76-.695 1.544-.695 2.5 0 1.764.903 3.332 2.295 4.264-.843-.025-1.624-.258-2.32-.638v.062c0 2.5 1.77 4.582 4.114 5.048-.44.123-.903.184-1.367.184-.318 0-.635-.037-.952-.098.634 2.034 2.55 3.553 4.773 3.578-1.733 1.397-3.967 2.438-6.36 2.438-.414 0-.817-.024-1.22-.085 2.258 1.458 4.98 2.095 7.874 2.095 9.423 0 14.575-7.842 14.575-14.643v-.674c.988-.723 1.854-1.617 2.55-2.67z" fill="#EFE3BB" fill-rule="evenodd"/></svg>